<mxfile host="app.diagrams.net" modified="2024-07-16T11:57:39.872Z" agent="Mozilla/5.0 (Windows NT 10.0; Win64; x64) AppleWebKit/537.36 (KHTML, like Gecko) Chrome/124.0.0.0 Whale/3.26.244.21 Safari/537.36" version="24.6.5" etag="Dp2VJFpGjXw4cyBbPveo" type="github">
  <diagram name="페이지-1" id="Zp3Bv6TYgp-hIOMIH2WJ">
    <mxGraphModel>
      <root>
        <mxCell id="0" />
        <mxCell id="1" parent="0" />
      </root>
    </mxGraphModel>
  </diagram>
</mxfile>
